<svg xmlns="http://www.w3.org/2000/svg" viewBox="0 0 48 48" width="48px" height="48px">
  <path fill="#cfd8dc" d="M12,4h24c4.4,0,8,3.6,8,8v24c0,4.4-3.6,8-8,8H12c-4.4,0-8-3.6-8-8V12C4,7.6,7.6,4,12,4z"/>
  <path fill="#546e7a" d="M37,18H11c-1.1,0-2-0.9-2-2V9c0-1.1,0.9-2,2-2h26c1.1,0,2,0.9,2,2v7C39,17.1,38.1,18,37,18z"/>
  <rect fill="#ffffff" x="11" y="22" width="6" height="6" rx="1"/>
  <rect fill="#ffffff" x="21" y="22" width="6" height="6" rx="1"/>
  <rect fill="#ffffff" x="31" y="22" width="6" height="6" rx="1"/>
  <rect fill="#ffffff" x="11" y="31" width="6" height="6" rx="1"/>
  <rect fill="#ffffff" x="21" y="31" width="6" height="6" rx="1"/>
  <rect fill="#e95420" x="31" y="31" width="6" height="6" rx="1"/>
  <path fill="#ffffff" d="M34 14.5L34 9.5 33 9.5 33 14.5z"/>
  <path fill="#ffffff" d="M35.5 12.5L31.5 12.5 31.5 11.5 35.5 11.5z"/>
  <path fill="#1a237e" d="M35.5 33.5L31.5 33.5 31.5 34.5 35.5 34.5z"/>
  <path fill="#1a237e" d="M35.5 32.5L31.5 32.5 31.5 33.5 35.5 33.5z"/>
</svg>
