<svg xmlns="http://www.w3.org/2000/svg" viewBox="0 0 64 64" fill="none">
  <path d="M16 6h22l14 14v38c0 2.2-1.8 4-4 4H16c-2.2 0-4-1.8-4-4V10c0-2.2 1.8-4 4-4z" fill="#ffffff" stroke="#c0c0c0" stroke-width="2"/>
  <path d="M38 6v14h14" fill="none" stroke="#c0c0c0" stroke-width="2" stroke-linejoin="round"/>
  <rect x="20" y="30" width="24" height="14" rx="2" fill="#E95420"/>
  <!-- M↓ -->
  <path d="M22 40v-6h2l2 4 2-4h2v6h-1.5v-4l-2 3.5h-1L23.5 36v4H22z" fill="#ffffff"/>
  <path d="M38 37v3h1.5l-2.5 3.5-2.5-3.5H36v-3h2z" fill="#ffffff"/>
</svg>
