<svg xmlns="http://www.w3.org/2000/svg" viewBox="0 0 64 64">
  <defs>
    <linearGradient id="bg" x1="0%" y1="0%" x2="0%" y2="100%">
      <stop offset="0%" stop-color="#E8E8E8" />
      <stop offset="100%" stop-color="#C0C0C0" />
    </linearGradient>
    <linearGradient id="gear" x1="0%" y1="0%" x2="0%" y2="100%">
      <stop offset="0%" stop-color="#555555" />
      <stop offset="100%" stop-color="#333333" />
    </linearGradient>
  </defs>
  
  <!-- Outer icon border / shadow -->
  <rect x="4" y="6" width="56" height="56" rx="14" fill="rgba(0,0,0,0.15)" />
  
  <!-- Main Background -->
  <rect x="4" y="4" width="56" height="56" rx="14" fill="url(#bg)" />
  <rect x="4" y="4" width="56" height="56" rx="14" fill="none" stroke="rgba(255,255,255,0.6)" stroke-width="1.5" />
  
  <!-- Gear -->
  <path fill="url(#gear)" d="M44.6 30.2c.1.6.1 1.2.1 1.8s0 1.2-.1 1.8l4.4 3.4c.4.3.5.8.3 1.3l-4.1 7.2c-.2.4-.7.6-1.2.4l-5.1-2.1c-1.1.8-2.2 1.5-3.5 2.1l-.8 5.4c-.1.5-.5.9-1 .9h-8.3c-.5 0-.9-.4-1-.9l-.8-5.4c-1.2-.6-2.4-1.3-3.5-2.1l-5.1 2.1c-.4.2-.9 0-1.2-.4l-4.1-7.2c-.2-.4-.1-1 .3-1.3l4.4-3.4c-.1-.6-.1-1.2-.1-1.8s0-1.2.1-1.8l-4.4-3.4c-.4-.3-.5-.8-.3-1.3l4.1-7.2c.2-.4.7-.6 1.2-.4l5.1 2.1c1.1-.8 2.2-1.5 3.5-2.1l.8-5.4c.1-.5.5-.9 1-.9h8.3c.5 0 .9.4 1 .9l.8 5.4c1.2.6 2.4 1.3 3.5 2.1l5.1-2.1c.4-.2.9 0 1.2.4l4.1 7.2c.2.4.1 1-.3 1.3l-4.4 3.4zM32 40.5c4.7 0 8.5-3.8 8.5-8.5s-3.8-8.5-8.5-8.5-8.5 3.8-8.5 8.5 3.8 8.5 8.5 8.5z"/>
  
  <!-- Inner hole highlight -->
  <circle cx="32" cy="32" r="8.5" fill="none" stroke="rgba(255,255,255,0.15)" stroke-width="1.5"/>
</svg>
