<svg xmlns="http://www.w3.org/2000/svg" viewBox="0 0 64 64">
  <defs>
    <linearGradient id="term-bg" x1="0%" y1="0%" x2="0%" y2="100%">
      <stop offset="0%" stop-color="#300A24" />
      <stop offset="100%" stop-color="#1E0313" />
    </linearGradient>
    <linearGradient id="term-title" x1="0%" y1="0%" x2="0%" y2="100%">
      <stop offset="0%" stop-color="#4B4B4B" />
      <stop offset="100%" stop-color="#363636" />
    </linearGradient>
  </defs>
  
  <!-- Shadow -->
  <rect x="4" y="8" width="56" height="50" rx="8" fill="rgba(0,0,0,0.2)" />
  
  <!-- Window Background -->
  <rect x="4" y="6" width="56" height="50" rx="8" fill="url(#term-bg)" />
  
  <!-- Titlebar -->
  <path d="M 4 14 C 4 9.582 7.582 6 12 6 L 52 6 C 56.418 6 60 9.582 60 14 L 60 18 L 4 18 L 4 14 Z" fill="url(#term-title)" />
  <rect x="4" y="6" width="56" height="50" rx="8" fill="none" stroke="rgba(255,255,255,0.15)" stroke-width="1.5" />
  
  <!-- Window Buttons -->
  <circle cx="14" cy="12" r="3" fill="#E95420" />
  <circle cx="24" cy="12" r="3" fill="#E8E8E8" />
  <circle cx="34" cy="12" r="3" fill="#E8E8E8" />
  
  <!-- Prompt Text -->
  <g fill="none" stroke="#FFFFFF" stroke-width="4" stroke-linecap="round" stroke-linejoin="round">
    <path d="M 16 28 L 26 35 L 16 42" stroke="#8AE234" />
    <path d="M 32 44 L 46 44" />
  </g>
</svg>
